<svg xmlns="http://www.w3.org/2000/svg" viewBox="0 0 1459.6 470" width="110" height="110" xmlns:v="https://vecta.io/nano"><path d="M404 350l-26-44-8-15-15-26L251 85c-8-12-26-11-33 2l-25 44-9 15L71 341l-6 11a19 19 0 0 0 19 27h303c15 0 25-16 17-29zm-175-57l-15-26c-3-5 1-10 6-10h30c5 0 9 5 6 10l-15 26c-3 4-9 4-12 0zm-25-49l-3-9 49 9h-46zm23 69l-7 7-17-47 24 40zm47-54l10 2-33 38 23-40zm-76-40l-1-15 65 32-64-17zm-8 47l17 65-12 8-5-73zm110 0l13 7-60 41 47-48zm-101-83l5-26 99 87-104-61zm-23 165l-25 8 25-129v121zm154-63l20 17-125 43 105-60zm-91-176l71 122-95-95 16-27c2-4 6-4 8 0zM92 350l14-24 56-98-35 129H96c-4 0-6-4-4-7zm282 7H233l130-34 15 27c2 3 0 7-4 7zm220-240c-1-5-5-8-10-8h-16c-5 0-10 3-11 8l-55 224c-2 7 3 13 10 13h6c5 0 9-3 10-8l12-51c1-5 5-8 10-8h51c5 0 10 3 11 8l12 51c1 5 5 8 10 8h6c6 0 12-6 10-13l-56-224zm-3 146h-31c-6 0-11-6-10-13l21-98c1-6 9-6 10 0l20 98c2 7-3 13-10 13zm404-47H868c-6 0-11-5-11-11v-53c0-11 9-20 20-20h63c6 0 11-5 11-10v-3c0-6-5-10-11-10h-70c-23 0-41 18-41 40v67H716c-5 0-10-5-10-11v-53c0-11 9-20 20-20h63c6 0 10-5 10-10v-3c0-6-4-10-10-10h-71c-22 0-40 18-40 40v194c0 6 5 11 11 11h6c6 0 11-5 11-11v-93c0-6 5-11 10-11h113v104c0 6 5 11 11 11h6c6 0 11-5 11-11v-93c0-6 5-11 11-11h120c11 0 20 9 20 20v85c0 5 5 10 10 10h6c6 0 11-5 11-10v-88c0-22-18-40-40-40zm208-107h-6c-6 0-10 4-11 10v201l-58-204c-1-4-5-7-10-7h-25c-6 0-11 4-11 10v225c0 5 5 10 11 10h6c5 0 10-5 10-10l1-202 58 204c1 5 5 8 10 8h25c6 0 10-5 10-10V119c0-6-4-10-10-10zm91 23h60c6 0 10-5 10-10v-3c0-6-4-10-10-10h-67c-22 0-40 18-40 40v165c0 22 18 40 40 40h67c6 0 10-5 10-10v-3c0-6-4-10-10-10h-60c-11 0-20-9-20-21v-63c0-6 5-11 10-11h66c6 0 11-5 11-11v-2c0-6-5-11-11-11h-66c-5 0-10-4-10-10v-50c0-11 9-20 20-20zm-275 7c-5-5-13-3-15 3l-8 29c-1 7 5 13 11 11l29-8c6-2 9-10 4-14l-21-21z"/></svg>