<svg xmlns="http://www.w3.org/2000/svg" width="75" height="75" viewBox="-10.6 -0.1 823.9 610.1" xmlns:v="https://vecta.io/nano"><path fill="#5865f2" d="M678 52a670 670 0 0 1 118 457c-69 50-135 80-201 101a3 3 0 0 1-2-1c-15-21-29-44-41-67-1-1 0-3 1-3 22-9 43-18 63-30v-4a318 318 0 0 1-15-10 473 473 0 0 1-405 0l-12 10c-2 1-2 3 0 4 20 11 41 21 62 30 2 0 2 2 2 3a475 475 0 0 1-44 68A663 663 0 0 1 3 507 675 675 0 0 1 123 51 658 658 0 0 1 288 1l21 42c60-9 121-9 183 0 5-13 13-29 20-42a2 2 0 0 1 2-1 660 660 0 0 1 164 52zM339 335c1-44-31-80-72-80-40 0-72 36-72 80 0 45 33 81 72 81 40 0 72-36 72-81zm266 0c1-44-31-80-72-80-40 0-72 36-72 80 0 45 33 81 72 81 41 0 72-36 72-81z"/></svg>