<svg xmlns="http://www.w3.org/2000/svg" width="110" height="110" viewBox="0 0 50.4 54.4" xmlns:v="https://vecta.io/nano"><path d="M28.48 1.058c4.387 6.321 22.848 30.772 10.272 35.868-5.875 2.754-32.64-1.617-32.256-.903L3.05 41.825s20.64.948 36.576-1.245C62.378 37.464 34.941 7.75 28.49 1.086z" fill="#7f7fff"/><path d="M28.48 1.058C27.021 1.263.256 34.868.256 34.868s1.93.559 6.317 1.205C7.994 34.946 27.981.597 28.557 1.087c-.01-.014-.027-.02-.05-.016z" fill="#ff7f7f"/><path d="M28.48 1.058C27.558.905 6.496 36.044 6.496 36.044s19.104 2.058 26.976 1.921c22.176-.382.169-29.988-4.954-36.946-.007-.006-.015-.011-.024-.012z" fill="#7f3fbf"/><path d="M28.278 45.547c-.643 0-1.164.531-1.164 1.178v6.242c.013.637.531 1.166 1.164 1.166h.63a1.18 1.18 0 0 0 1.123-1.166v-6.242a1.18 1.18 0 0 0-1.123-1.178h-.003zm-27.071.081c-.207 0-.374.165-.39.365V46v8.055h1.958c.304 0 .488-.152.567-.295l.002-.003.002-.003.263-.611.089-.205H1.915v-2.668c0-.018.033-.052.051-.052h.342c.304 0 .481-.159.557-.295l.002-.003.002-.003.113-.264.151-.357.089-.204H1.917v-2.274c0-.048.004-.053.051-.053h.658c.306 0 .493-.163.562-.319l.364-.808zm3.795 0v8.417h1.101v-3.367l.595 2.745c.017.08.044.234.142.376s.283.262.541.262h.516v-8.418H6.796v3.393l-.559-2.823v-.001c-.024-.124-.061-.272-.175-.388s-.293-.182-.544-.182zm4.579 0v8.417h1.72c.632 0 1.138-.521 1.151-1.166v-6.087c-.013-.645-.521-1.165-1.151-1.165zm5.338 0a.4.4 0 0 0-.392.365V46v8.055h1.958c.304 0 .488-.152.567-.295l.002-.003.002-.003.263-.611.089-.205h-1.781v-2.668c0-.019.033-.052.051-.052h.342c.304 0 .481-.159.557-.295l.002-.003.002-.003.113-.264.151-.357.089-.204h-1.303v-2.274c0-.049.004-.053.051-.053h.658c.306 0 .493-.162.562-.316v-.001l.364-.808zm4.529 0l-.018.124-1.23 8.314h1.187l.592-4.636.592 4.636h1.187l-1.171-7.874h0c-.018-.115-.04-.25-.128-.368s-.244-.196-.445-.196zm2.96 0l.025.167 1.136 7.563v.001c.004.026.026.194.11.355s.258.334.519.334h.531l1.257-8.417h-1.106l-.686 4.61-.62-4.17v-.002c-.053-.313-.246-.435-.38-.435zm9.791 0c-.202 0-.362.165-.38.365l-.001.006v6.967c0 .647.524 1.145 1.151 1.145h.767v-.041c.539-.08.977-.518.977-1.103v-7.33h-1.101v7.174a.29.29 0 0 1-.291.295h-.124c-.162 0-.278-.126-.278-.295v-7.174zm4.225 0v8.417h1.101v-3.496h.291c.08 0 .143.022.19.07s.089.136.089.308v3.134h1.101v-3.263s.007-.166-.031-.357c-.027-.136-.097-.282-.204-.407.032-.031.082-.045.104-.081.057-.094.087-.197.105-.293.037-.192.027-.365.027-.365v-2.502c0-.65-.519-1.168-1.141-1.168zm-7.792.94h.118c.162 0 .288.127.288.308v5.931c0 .181-.128.308-.288.308h-.118a.31.31 0 0 1-.296-.308v-5.931a.31.31 0 0 1 .296-.308zm8.906.127h.291c.083 0 .154.023.2.062s.079.094.079.211v2.186c0 .159-.038.225-.08.262s-.11.058-.198.058h-.291zm-26.818.058h.392a.33.33 0 0 1 .211.063c.047.039.079.093.079.21v5.62c0 .125-.034.181-.08.221s-.12.064-.21.064h-.392z" fill="#280b0b"/><path d="M41.687 45.547c-.643 0-1.164.531-1.164 1.178v6.242c.013.637.531 1.166 1.164 1.166h.63a1.18 1.18 0 0 0 1.123-1.166v-6.242a1.18 1.18 0 0 0-1.123-1.178h-.003zm4.63 0c-.65 0-1.164.578-1.164 1.225v.829s-.032.596.382 1.37l.977 1.873.001.002s.083.149.168.357.165.474.165.676v.93c0 .181-.128.308-.291.308-.077.001-.15-.03-.205-.086s-.084-.131-.084-.21V51.18l-.2.091-.352.16-.238.103-.013.005-.011.007c-.136.078-.301.267-.301.58v.839c.013.632.506 1.15 1.123 1.176h.516c.643 0 1.164-.531 1.164-1.178v-1.026s.033-.596-.38-1.37L46.6 48.68l-.001-.003s-.083-.146-.167-.35-.165-.466-.165-.668v-.78c0-.181.128-.308.291-.308s.291.127.291.308v1.16l.196-.085.61-.282.003-.002.003-.002c.137-.078.299-.267.299-.58v-.313c0-.637-.496-1.212-1.126-1.225h-.002zm-4.402 1.023h.118c.162 0 .288.127.288.308v5.931c0 .181-.128.308-.288.308h-.118c-.166-.008-.296-.142-.296-.308v-5.931a.31.31 0 0 1 .296-.308z" fill="#7f7fff"/></svg>