<svg xmlns="http://www.w3.org/2000/svg" width="110" height="110" viewBox="0 0 1000 1000" xmlns:v="https://vecta.io/nano"><path d="M500 15a485 485 0 1 0 0 970 485 485 0 0 0 0-970zM242 165h302a59 59 0 1 1-1 62H209v580c30 28 64 52 100 71V625l1-2v-3l1-1v-2l1-1v-1l1-2 1-1v-1l1-2 1-1 1-1 1-1 1-1 1-1 1-1 1-1 2-1h1l1-1h2l1-1 2-1h3l1-1h109a59 59 0 1 1 0 62h-73v244a429 429 0 0 0 245 4V586a59 59 0 0 1 32-109 59 59 0 0 1 30 110v297c29-13 55-30 80-49V532l1-1v-3l1-2v-1l1-2 1-1v-1l1-1 1-2 1-1v-1l2-1 1-1 1-1 1-1 1-1 2-1h1l1-1 2-1h1l2-1h3l1-1h139v-6c0-106-38-203-103-277v138l-1 1v2l-1 1v2l-1 1v2l-1 1-1 1-1 2-1 1v1l-1 1-2 1-1 1-1 1-1 1-2 1h-1l-1 1h-2l-1 1-2 1h-3l-1 1H371v63c18 10 29 29 29 51a59 59 0 1 1-90-51V347l1-1v-2l1-1v-1l1-2 1-1v-2l1-1 1-1 1-1 1-1 1-1 1-1 1-1 2-1 1-1h1l2-1 1-1h1l2-1h1l2-1h424V165a419 419 0 0 0-516 0zM77 500c0-86 26-167 70-233v467c-44-67-70-148-70-234zm841 68h-98v209c50-58 85-130 98-209z" fill-rule="evenodd"/></svg>