<svg xmlns="http://www.w3.org/2000/svg" width="75" height="75" preserveAspectRatio="xMinYMin" viewBox="0 0 7.68 7.679" fill="#161614" xmlns:v="https://vecta.io/nano"><path d="M3.84 0C1.72 0 0 1.763 0 3.937c0 1.74 1.1 3.216 2.626 3.736.192.037.262-.085.262-.19l-.005-.732c-1.068.238-1.294-.465-1.294-.465-.174-.455-.426-.576-.426-.576-.348-.244.026-.24.026-.24.386.029.589.407.589.407.343.601.898.427 1.117.327.035-.255.134-.428.244-.527-.853-.1-1.75-.437-1.75-1.945 0-.43.15-.781.396-1.057-.04-.1-.17-.5.038-1.042 0 0 .322-.106 1.056.403.306-.087.635-.13.961-.132s.655.045.962.132c.733-.509 1.055-.403 1.055-.403.209.542.077.943.038 1.042.246.276.395.627.395 1.057 0 1.512-.899 1.845-1.754 1.942.138.122.26.362.26.73l-.004 1.08c0 .105.07.227.264.189C6.581 7.152 7.68 5.676 7.68 3.937 7.68 1.763 5.96 0 3.84 0"/><path d="M1.438 5.609c-.008.02-.038.025-.066.012s-.043-.04-.034-.06.038-.025.066-.012.044.04.034.06m.19.172c-.02.018-.055.01-.08-.018s-.03-.064-.01-.082.053-.009.078.019.03.064.011.081m.13.222c-.024.016-.062 0-.086-.034s-.024-.077 0-.094.062-.002.086.033.024.077 0 .095m.219.256c-.021.023-.066.017-.099-.015s-.043-.077-.022-.101.067-.017.1.015.043.077.02.1m.284.087c-.01.03-.052.045-.096.032s-.072-.05-.063-.081.052-.046.096-.032.072.05.063.081m.322.037c.001.032-.035.06-.081.06s-.083-.026-.084-.057.036-.06.082-.06.083.024.083.057m.317-.013c.006.032-.026.065-.072.073s-.085-.011-.091-.042.027-.065.071-.074.086.011.092.043"/></svg>