<svg xmlns="http://www.w3.org/2000/svg" preserveAspectRatio="xMidYMid" width="75" height="75" viewBox="0 0 256 236"><path fill="#e24329" d="m128 236 47.2-144.9H81Z"/><path fill="#fc6d26" d="M128 236 81 91.2H15Z"/><path fill="#fca326" d="m15 91.1-14.4 44c-1.3 4 .2 8.5 3.6 11L128 236z"/><path fill="#e24329" d="M15 91.1h66L52.6 3.8a4.9 4.9 0 0 0-9.3 0z"/><path fill="#fc6d26" d="m128 236 47.2-144.9h66z"/><path fill="#fca326" d="m241.2 91.1 14.3 44c1.3 4-.1 8.5-3.5 11l-124 90z"/><path fill="#e24329" d="M241.2 91.1h-66l28.3-87.3a4.9 4.9 0 0 1 9.3 0z"/></svg>
