<svg xmlns="http://www.w3.org/2000/svg" width="75" height="75" xmlns:v="https://vecta.io/nano"><path d="M37.5 0a37.5 37.5 0 1 0 0 75 37.5 37.5 0 0 0 0-75zm17.2 54a2.3 2.3 0 0 1-3.2.9 43.1 43.1 0 0 0-33-3.7 2.3 2.3 0 1 1-1-4.5 47.6 47.6 0 0 1 36.4 4.2 2.3 2.3 0 0 1 .8 3.2zm4.6-10a3 3 0 0 1-4 1c-10.1-6.3-25.5-8-37.4-4.4a3 3 0 0 1-3.7-2 3 3 0 0 1 2-3.6 54.7 54.7 0 0 1 42.1 5 3 3 0 0 1 1 4zm.4-10.7c-12.1-7.1-32-7.8-43.6-4.3a3.5 3.5 0 1 1-2-6.7c13.2-4 35.2-3.3 49.2 5a3.5 3.5 0 0 1-3.6 6z" fill="#2ebd59"/></svg>